<svg xmlns="http://www.w3.org/2000/svg" viewBox="0 0 89.82 85.43"><defs><style>.cls-1{fill:#eace2a;}.cls-2{fill:#29282a;}.cls-3{fill:#121112;}.cls-4{fill:#404041;}.cls-5{fill:#fff;}.cls-6{fill:#dbdbdb;}</style></defs><title>Resurs 3</title><g id="Lager_2" data-name="Lager 2"><g id="Lager_1-2" data-name="Lager 1"><polygon class="cls-1" points="44.91 0 58.79 28.12 89.82 32.63 67.37 54.52 72.67 85.43 44.91 70.83 17.16 85.43 22.46 54.52 0 32.63 31.03 28.12 44.91 0"/><rect class="cls-2" x="23.9" y="26.05" width="41.47" height="6.01" transform="translate(-4.01 7.37) rotate(-9.03)"/><rect class="cls-3" x="44.51" y="24.43" width="20.75" height="6.01" transform="translate(-3.63 8.96) rotate(-9.03)"/><rect class="cls-4" x="29.6" y="30.41" width="31.03" height="41.47" transform="translate(-6.79 95.4) rotate(-89.03)"/><rect class="cls-2" x="42.32" y="17.9" width="6.01" height="41.47" transform="translate(5.93 83.31) rotate(-89.03)"/><rect class="cls-2" x="39.95" y="40.96" width="31.03" height="20.73" transform="translate(3.21 105.92) rotate(-89.03)"/><rect class="cls-3" x="52.67" y="28.45" width="6.01" height="20.73" transform="translate(15.93 93.83) rotate(-89.03)"/><polygon class="cls-5" points="24.55 40.52 29.88 35.38 24.64 35.29 24.55 40.52"/><polygon class="cls-5" points="28.17 41.35 33.46 41.44 39.59 35.54 34.27 35.45 28.17 41.35"/><polygon class="cls-5" points="37.86 41.52 43.17 41.61 49.28 35.7 43.98 35.61 37.86 41.52"/><polygon class="cls-6" points="47.57 41.68 52.86 41.77 58.97 35.87 53.67 35.78 47.57 41.68"/><polygon class="cls-6" points="62.55 41.93 66.05 38.56 66.09 35.99 63.37 35.94 57.26 41.84 62.55 41.93"/><polygon class="cls-5" points="24.52 34.52 28.88 28.51 23.69 29.34 24.52 34.52"/><polygon class="cls-5" points="28.22 34.71 33.46 33.88 38.45 27 33.21 27.83 28.22 34.71"/><polygon class="cls-5" points="37.81 33.19 43.04 32.35 48.03 25.47 42.8 26.3 37.81 33.19"/><polygon class="cls-6" points="47.37 31.66 52.63 30.83 57.62 23.94 52.38 24.78 47.37 31.66"/><polygon class="cls-6" points="62.19 29.3 65.06 25.37 64.64 22.83 61.95 23.25 56.96 30.13 62.19 29.3"/><rect class="cls-5" x="44.95" y="32.42" width="0.38" height="34.33" transform="translate(-5.2 93.88) rotate(-89.03)"/><polygon class="cls-5" points="62.18 57.44 51.01 57.25 50.63 57.24 39.38 57.05 39 57.05 27.85 56.86 27.84 57.26 38.99 57.45 38.87 64.55 39.25 64.56 39.37 57.45 50.62 57.65 50.5 64.75 50.88 64.75 51 57.65 62.17 57.84 62.18 57.44"/><polygon class="cls-6" points="50.63 57.24 45 57.15 45 57.55 50.62 57.65 50.5 64.75 50.88 64.75 51 57.65 62.17 57.84 62.18 57.44 51.01 57.25 50.63 57.24"/><rect class="cls-6" x="53.53" y="41.14" width="0.38" height="17.18" transform="translate(3.09 102.6) rotate(-89.03)"/><polygon class="cls-6" points="45.3 39.53 49.28 35.7 45.37 35.64 45.3 39.53"/><polygon class="cls-6" points="48.03 25.47 44.15 26.09 44.77 29.96 48.03 25.47"/></g></g></svg>